<svg id="PENGUIN_version3" data-name="PENGUIN version3" xmlns="http://www.w3.org/2000/svg" width="410.19" height="684.47" viewBox="0 0 410.19 684.47">
  <defs>
    <style>
      .cls-1, .cls-6 {
        fill: #041620;
      }

      .cls-1, .cls-2, .cls-3, .cls-4, .cls-5, .cls-6, .cls-7 {
        fill-rule: evenodd;
      }

      .cls-2 {
        fill: #ffa822;
      }

      .cls-3, .cls-7 {
        fill: #fff;
      }

      .cls-4, .cls-5, .cls-7 {
        stroke: #000;
      }

      .cls-4 {
        stroke-width: 1.87px;
      }

      .cls-5 {
        fill: #af5d52;
      }

      .cls-5, .cls-6, .cls-7 {
        stroke-width: 0.44px;
      }

      .cls-6 {
        stroke: #4a4949;
      }

      .cls-8, .cls-9 {
        font-size: 30px;
        text-anchor: middle;
        font-family: "PT Mono";
      }

      .cls-8 {
        fill: #1ac0c6;
      }

      .cls-9 {
        fill: #ff6150;
      }
    </style>
  </defs>
  <path id="body1" class="cls-1" d="M4620.21,3068.78L4689,2993l-5,465-108.99-95.81Z" transform="translate(-4575 -2857)"/>
  <path id="body3" class="cls-1" d="M4939.98,3068.78l-64.03-75.31L4885,3459l100.18-96.81Z" transform="translate(-4575 -2857)"/>
  <path id="foot2" class="cls-2" d="M4611.42,3540l72.39-67.08,61.48,68.55Z" transform="translate(-4575 -2857)"/>
  <path id="foot" class="cls-2" d="M4812.76,3539.77l72.39-67.07,61.48,68.55Z" transform="translate(-4575 -2857)"/>
  <path id="body2" class="cls-3" d="M4844.02,2951.99l33.21,42.33L4884,3458l-199.99-1,1.99-461,36.83-43.02,59.21,56.5Z" transform="translate(-4575 -2857)"/>
  <path id="head" class="cls-1" d="M4732,2857l106,1,43,56-2.04,87-94.92-91-100.02,91-1.02-87.53Z" transform="translate(-4575 -2857)"/>
  <g id="eye1">
    <path id="eye01" class="cls-3" d="M4758.67,2896.05c8.58,0,15.54,10.58,15.54,23.63s-6.96,23.64-15.54,23.64-15.53-10.58-15.53-23.64S4750.09,2896.05,4758.67,2896.05Z" transform="translate(-4575 -2857)"/>
    <path id="eye03" class="cls-4" d="M4764.76,2903.5c5.62,0,10.18,3.67,10.18,8.2s-4.56,8.21-10.18,8.21-10.18-3.68-10.18-8.21S4759.14,2903.5,4764.76,2903.5Z" transform="translate(-4575 -2857)"/>
  </g>
  <g id="eye2">
    <path id="eye01-2" data-name="eye01" class="cls-3" d="M4810.22,2897.05c8.57,0,15.52,10.58,15.52,23.63s-6.95,23.64-15.52,23.64-15.52-10.58-15.52-23.64S4801.65,2897.05,4810.22,2897.05Z" transform="translate(-4575 -2857)"/>
    <path id="eye03-2" data-name="eye03" class="cls-4" d="M4816.29,2901.46c5.62,0,10.18,3.67,10.18,8.2s-4.56,8.21-10.18,8.21-10.18-3.68-10.18-8.21S4810.67,2901.46,4816.29,2901.46Z" transform="translate(-4575 -2857)"/>
  </g>
  <path id="csőr_:D" data-name="csőr :D" class="cls-2" d="M4728,2959.47l57-49.47,53,50.53-55.32,49.48Z" transform="translate(-4575 -2857)"/>
  <path id="lips" class="cls-5" d="M4758.65,2963.88s13.93,9.4,26.12,6.53a20.134,20.134,0,0,0,10.33-6.75A83.076,83.076,0,0,0,4806,2947s-13.28,13.32-23.03,17.6C4771.77,2969.52,4758.65,2963.88,4758.65,2963.88Z" transform="translate(-4575 -2857)"/>
  <path id="hole1" class="cls-5" d="M4777.59,2947.42c1.25,0,2.25,1.68,2.25,3.75s-1,3.76-2.25,3.76-2.25-1.68-2.25-3.76S4776.35,2947.42,4777.59,2947.42Z" transform="translate(-4575 -2857)"/>
  <path id="hole2" class="cls-5" d="M4788.44,2947.42c1.24,0,2.25,1.68,2.25,3.75s-1.01,3.76-2.25,3.76-2.25-1.68-2.25-3.76S4787.2,2947.42,4788.44,2947.42Z" transform="translate(-4575 -2857)"/>
  <path id="arm1" class="cls-6" d="M4913,3143l-13-92s-27.49,42.73-71,27c-42.27-15.29-103.81-29.79-118-13s20,31,20,31,56.15,52.8,102.6,43.65C4874.08,3131.67,4913,3143,4913,3143Z" transform="translate(-4575 -2857)"/>
  <path id="arm2" class="cls-6" d="M4662,3069v96s143.99-74.5,97.99-60.92c12.61-3.72,45.88,3.29,72.8,5.36,17.44,1.35,32.22.62,36.99-6.43,11.32-16.74-60.25-51.47-60.25-51.47s-55.64-6.13-103.37,23.77C4672.55,3096.36,4662,3069,4662,3069Z" transform="translate(-4575 -2857)"/>
  <path id="eyebrow3" class="cls-7" d="M4793.29,2895.78c-0.19.01,12.87-11.08,20.17-10.1,8.7,1.16,11.8,11.26,14.02,12.72,0,0,1.29-.2-2.76-0.74,0,0-5.11-7.34-11.45-8.03-5.87-.63-13.02,5.39-13.02,5.39S4793.64,2895.78,4793.29,2895.78Z" transform="translate(-4575 -2857)"/>
  <path id="eyebrow2" class="cls-7" d="M4769.72,2893.68a20.642,20.642,0,0,0-10.6-3.62c-4.6-.04-9.53,3.34-11.39,4.02,0,0-2.5,1.43.99,1.27a29.975,29.975,0,0,1,10.22-2.34,39.823,39.823,0,0,1,10.98,1.66S4769.41,2893.67,4769.72,2893.68Z" transform="translate(-4575 -2857)"/>
  <text id="NO_MORE_IDK" data-name="NO MORE IDK" class="cls-8" x="203.941" y="310.718">NO<tspan x="203.941" dy="36">MORE</tspan><tspan x="203.941" dy="36">IDK</tspan></text>
  <text id="NO_MORE_IDK-2" data-name="NO MORE IDK" class="cls-9" x="205.94" y="308.715">NO<tspan x="205.94" dy="36">MORE</tspan><tspan x="205.94" dy="36">IDK</tspan></text>
</svg>
